<svg width="29" height="28" viewBox="0 0 29 28" fill="none" xmlns="http://www.w3.org/2000/svg">
<rect x="0.5" width="28" height="28" rx="14" fill="white"/>
<path d="M24.3055 12.0415H23.5V12H14.5V16H20.1515C19.327 18.3285 17.1115 20 14.5 20C11.1865 20 8.5 17.3135 8.5 14C8.5 10.6865 11.1865 8 14.5 8C16.0295 8 17.421 8.577 18.4805 9.5195L21.309 6.691C19.523 5.0265 17.134 4 14.5 4C8.9775 4 4.5 8.4775 4.5 14C4.5 19.5225 8.9775 24 14.5 24C20.0225 24 24.5 19.5225 24.5 14C24.5 13.3295 24.431 12.675 24.3055 12.0415Z" fill="#FFC107"/>
<path d="M5.65234 9.3455L8.93784 11.755C9.82684 9.554 11.9798 8 14.4993 8C16.0288 8 17.4203 8.577 18.4798 9.5195L21.3083 6.691C19.5223 5.0265 17.1333 4 14.4993 4C10.6583 4 7.32734 6.1685 5.65234 9.3455Z" fill="#FF3D00"/>
<path d="M14.5002 24C17.0832 24 19.4302 23.0115 21.2047 21.404L18.1097 18.785C17.0721 19.5745 15.8039 20.0014 14.5002 20C11.8992 20 9.69066 18.3415 8.85866 16.027L5.59766 18.5395C7.25266 21.778 10.6137 24 14.5002 24Z" fill="#4CAF50"/>
<path d="M24.3055 12.0415H23.5V12H14.5V16H20.1515C19.7571 17.1082 19.0467 18.0766 18.108 18.7855L18.1095 18.7845L21.2045 21.4035C20.9855 21.6025 24.5 19 24.5 14C24.5 13.3295 24.431 12.675 24.3055 12.0415Z" fill="#1976D2"/>
</svg>
